<?xml version="1.0" encoding="UTF-8"?>
<!DOCTYPE svg PUBLIC "-//W3C//DTD SVG 1.1//EN" "http://www.w3.org/Graphics/SVG/1.1/DTD/svg11.dtd">
<!-- Creator: CorelDRAW -->
<svg xmlns="http://www.w3.org/2000/svg" xml:space="preserve" width="8.58mm" height="9.48mm" version="1.1" style="shape-rendering:geometricPrecision; text-rendering:geometricPrecision; image-rendering:optimizeQuality; fill-rule:evenodd; clip-rule:evenodd"
viewBox="0 0 1050.61 1160.82"
 xmlns:xlink="http://www.w3.org/1999/xlink"
 xmlns:xodm="http://www.corel.com/coreldraw/odm/2003">
 <defs>
  <style type="text/css">
   <![CDATA[
    .fil0 {fill:none}
    .fil1 {fill:#423A8E}
   ]]>
  </style>
 </defs>
 <g id="Layer_x0020_1">
  <metadata id="CorelCorpID_0Corel-Layer"/>
  <g id="_1755653556256">
   <rect class="fil0" x="-0.01" width="1050.61" height="1160.82"/>
   <path class="fil1" d="M298.24 298.1c0,118.37 38.76,151 117.66,229.02 24.98,24.7 74.74,71.63 93.88,94.33l58.49 60.37c17.49,15.99 55.4,62.53 66.62,81.96 7.08,12.23 33.82,45.61 32.94,106.96 -2.88,45.6 -95.89,142.86 -136.82,170.28 -25.65,-5.98 -49.53,-36.13 -49.53,-64.38 0,-42.13 134.27,-101.39 60.27,-198.94 -31.52,-41.57 -140.49,-152.39 -180.6,-185.91l-64.16 -59.64c-41.71,-41.46 -83.03,-91.62 -95.93,-151.71 -5.16,-24.05 6.34,-65.18 -12.51,-58.41 -24.82,8.91 -143.67,137.06 -165.73,166.24 -44.99,59.47 -17.57,151.73 31.53,207.28 26.88,30.4 59.77,59.84 89.12,89.19l131.24 131.24c14.79,14.8 26.88,35.14 48.29,40.86 10.78,-20.35 10.27,-35.34 22.48,-56.76 23.62,-41.46 53.23,-58.51 11.11,-100.64 -11.58,-11.58 -12.42,-16.57 -28.64,-20.9l-33.7 30.72c-7.58,-5.44 -8.61,-6.12 -15.12,-11.62 -34.87,-29.41 -66.07,-67.14 -98.52,-99.59 -61.37,-61.37 -151.67,-130.93 -45.81,-201.82 25.49,6.81 58.67,51.24 78,70.58l227.94 227.72c75.72,75.71 -50.62,104.88 -46.37,190.11 3.91,78.4 33.89,92.18 83.41,139.35 11.76,11.19 30.99,27.65 43.33,35.91 34.31,-9.16 139.91,-127.54 139.91,-127.54 58.03,-62.09 92.87,-100.4 92.87,-199.35 0,-136.08 -126.06,-205.78 -206.84,-293.39 -79.52,-80.07 -217.46,-182 -146.6,-307.69 13.37,-23.73 100.6,-108.59 120.66,-122.02 26.06,6.96 44.57,36.29 44.57,64.38 0,66.22 -163.4,90.39 -23.58,241.51 10.22,11.06 18.96,18.84 29.78,29.66 58.14,58.14 121.13,119.49 176.28,180.32l42.7 46.46c9.34,12.64 12.76,19.91 20.49,33.99 7.1,12.97 11.84,23.73 17.8,36.67l22.48 61.71c4.26,14.06 -0.36,9.65 6.27,23.45 42.84,-28.69 130.47,-123.45 164.68,-162.21 56.96,-64.57 16.93,-157.62 -29.76,-210.45 -76.57,-86.64 -178.03,-158.94 -250.03,-250.2 -0.64,-0.81 -1.52,-1.97 -2.13,-2.83 -0.61,-0.86 -1.35,-2.12 -1.93,-3.01l-19.51 -20.11c-6.66,16.11 3.84,9.59 -1.03,28.24 -20.23,77.36 -99.97,102.24 1.03,169.87l33.7 -30.72c23.79,7.27 60.09,52.19 79.75,70.8 42.38,51.82 108.55,98.71 120.26,162.2 7.3,39.56 10.81,50.58 -40.56,84.98l-17.67 -17c-40.32,-47.6 -105,-108.16 -151.96,-155.11l-126.29 -126.29c-62.74,-62.51 -35.07,-56.57 8.82,-117.48 96.67,-134.18 -91.05,-247.79 -104.16,-247.79 -15.67,0 -177.18,159.06 -195.65,190.67 -14.56,24.92 -27.22,69.07 -27.22,106.49z"/>
  </g>
 </g>
</svg>
